name ./resultDataOpenSim/trcMotMarkerGrf/sub06/grf-15-04.mot
datacolumns 19
datarows 22
range 1.59600000 1.68000000
endheader

                time	     ground_force_vx	     ground_force_vy	     ground_force_vz	     ground_force_px	     ground_force_py	     ground_force_pz	   l_ground_force_vx	   l_ground_force_vy	   l_ground_force_vz	   l_ground_force_px	   l_ground_force_py	   l_ground_force_pz	     ground_torque_x	     ground_torque_y	     ground_torque_z	   l_ground_torque_x	   l_ground_torque_y	   l_ground_torque_z	
          1.59600000	         80.86095059	        545.66428382	         -6.51135474	          0.96228328	          0.00000000	          0.03475573	          0.00000000	          0.00000000	          0.00000000	          0.00000000	          0.00000000	          0.00000000	          0.00000000	          2.23407988	          0.00000000	          0.00000000	          0.00000000	          0.00000000	
          1.60000000	         84.90529240	        554.93881030	         -8.08830943	          0.96240648	          0.00000000	          0.03464095	          0.00000000	          0.00000000	          0.00000000	          0.00000000	          0.00000000	          0.00000000	          0.00000000	          2.24678219	          0.00000000	          0.00000000	          0.00000000	          0.00000000	
          1.60400000	         89.30262622	        563.98321470	         -9.50949884	          0.96247008	          0.00000000	          0.03452512	          0.00000000	          0.00000000	          0.00000000	          0.00000000	          0.00000000	          0.00000000	          0.00000000	          2.25413626	          0.00000000	          0.00000000	          0.00000000	          0.00000000	
          1.60800000	         94.23007957	        572.81995733	        -10.63371157	          0.96245494	          0.00000000	          0.03440132	          0.00000000	          0.00000000	          0.00000000	          0.00000000	          0.00000000	          0.00000000	          0.00000000	          2.25697781	          0.00000000	          0.00000000	          0.00000000	          0.00000000	
          1.61200000	         99.75110246	        581.46430382	        -11.39118352	          0.96235977	          0.00000000	          0.03427130	          0.00000000	          0.00000000	          0.00000000	          0.00000000	          0.00000000	          0.00000000	          0.00000000	          2.25487532	          0.00000000	          0.00000000	          0.00000000	          0.00000000	
          1.61600000	        105.79552285	        589.91318168	        -11.78719803	          0.96220354	          0.00000000	          0.03414061	          0.00000000	          0.00000000	          0.00000000	          0.00000000	          0.00000000	          0.00000000	          0.00000000	          2.24698540	          0.00000000	          0.00000000	          0.00000000	          0.00000000	
          1.62000000	        112.17554400	        598.13360231	        -11.89210355	          0.96203096	          0.00000000	          0.03400909	          0.00000000	          0.00000000	          0.00000000	          0.00000000	          0.00000000	          0.00000000	          0.00000000	          2.23341172	          0.00000000	          0.00000000	          0.00000000	          0.00000000	
          1.62400000	        118.63544124	        606.06079580	        -11.82260537	          0.96187530	          0.00000000	          0.03386949	          0.00000000	          0.00000000	          0.00000000	          0.00000000	          0.00000000	          0.00000000	          0.00000000	          2.21613750	          0.00000000	          0.00000000	          0.00000000	          0.00000000	
          1.62800000	        124.92198525	        613.59394179	        -11.71527355	          0.96176267	          0.00000000	          0.03371175	          0.00000000	          0.00000000	          0.00000000	          0.00000000	          0.00000000	          0.00000000	          0.00000000	          2.19899057	          0.00000000	          0.00000000	          0.00000000	          0.00000000	
          1.63200000	        130.85205848	        620.58801461	        -11.69555787	          0.96171365	          0.00000000	          0.03353101	          0.00000000	          0.00000000	          0.00000000	          0.00000000	          0.00000000	          0.00000000	          0.00000000	          2.18671137	          0.00000000	          0.00000000	          0.00000000	          0.00000000	
          1.63600000	        136.35735071	        626.86823205	        -11.84778361	          0.96172570	          0.00000000	          0.03332771	          0.00000000	          0.00000000	          0.00000000	          0.00000000	          0.00000000	          0.00000000	          0.00000000	          2.18352172	          0.00000000	          0.00000000	          0.00000000	          0.00000000	
          1.64000000	        141.50529188	        632.26604143	        -12.19010338	          0.96179512	          0.00000000	          0.03310586	          0.00000000	          0.00000000	          0.00000000	          0.00000000	          0.00000000	          0.00000000	          0.00000000	          2.19156014	          0.00000000	          0.00000000	          0.00000000	          0.00000000	
          1.64400000	        146.49201584	        636.64228453	        -12.66527476	          0.96189748	          0.00000000	          0.03287108	          0.00000000	          0.00000000	          0.00000000	          0.00000000	          0.00000000	          0.00000000	          0.00000000	          2.20952522	          0.00000000	          0.00000000	          0.00000000	          0.00000000	
          1.64800000	        151.57660381	        639.87748128	        -13.16186200	          0.96197341	          0.00000000	          0.03262430	          0.00000000	          0.00000000	          0.00000000	          0.00000000	          0.00000000	          0.00000000	          0.00000000	          2.23214832	          0.00000000	          0.00000000	          0.00000000	          0.00000000	
          1.65200000	        156.96029568	        641.84848657	        -13.55802413	          0.96196358	          0.00000000	          0.03236680	          0.00000000	          0.00000000	          0.00000000	          0.00000000	          0.00000000	          0.00000000	          0.00000000	          2.25128752	          0.00000000	          0.00000000	          0.00000000	          0.00000000	
          1.65600000	        162.69754549	        642.43102372	        -13.74897772	          0.96185315	          0.00000000	          0.03210487	          0.00000000	          0.00000000	          0.00000000	          0.00000000	          0.00000000	          0.00000000	          0.00000000	          2.25871426	          0.00000000	          0.00000000	          0.00000000	          0.00000000	
          1.66000000	        168.70980068	        641.52791340	        -13.64682353	          0.96167427	          0.00000000	          0.03184127	          0.00000000	          0.00000000	          0.00000000	          0.00000000	          0.00000000	          0.00000000	          0.00000000	          2.24935215	          0.00000000	          0.00000000	          0.00000000	          0.00000000	
          1.66400000	        174.86322970	        639.07023885	        -13.19046652	          0.96145719	          0.00000000	          0.03157624	          0.00000000	          0.00000000	          0.00000000	          0.00000000	          0.00000000	          0.00000000	          0.00000000	          2.22324807	          0.00000000	          0.00000000	          0.00000000	          0.00000000	
          1.66800000	        181.02525461	        634.97566267	        -12.36816282	          0.96119799	          0.00000000	          0.03131493	          0.00000000	          0.00000000	          0.00000000	          0.00000000	          0.00000000	          0.00000000	          0.00000000	          2.18544148	          0.00000000	          0.00000000	          0.00000000	          0.00000000	
          1.67200000	        187.06627407	        629.12452015	        -11.21550946	          0.96089546	          0.00000000	          0.03105934	          0.00000000	          0.00000000	          0.00000000	          0.00000000	          0.00000000	          0.00000000	          0.00000000	          2.14410571	          0.00000000	          0.00000000	          0.00000000	          0.00000000	
          1.67600000	        192.82998519	        621.38647289	         -9.79149275	          0.96056371	          0.00000000	          0.03080538	          0.00000000	          0.00000000	          0.00000000	          0.00000000	          0.00000000	          0.00000000	          0.00000000	          2.10781123	          0.00000000	          0.00000000	          0.00000000	          0.00000000	
          1.68000000	        198.11233320	        611.64125286	         -8.16318525	          0.96019630	          0.00000000	          0.03054606	          0.00000000	          0.00000000	          0.00000000	          0.00000000	          0.00000000	          0.00000000	          0.00000000	          2.08262375	          0.00000000	          0.00000000	          0.00000000	          0.00000000	
